<svg height='100px' width='100px'  fill="#000000" xmlns="http://www.w3.org/2000/svg" xmlns:xlink="http://www.w3.org/1999/xlink" version="1.1" x="0px" y="0px" viewBox="0 0 100 100" enable-background="new 0 0 100 100" xml:space="preserve"><path d="M73,20.25H61c0-0.552-0.448-1-1-1h-5.776c-0.621-1.742-2.271-3-4.224-3s-3.602,1.258-4.224,3H40c-0.552,0-1,0.448-1,1H27  c-1.103,0-2,0.897-2,2v59.5c0,1.103,0.897,2,2,2h46c1.103,0,2-0.897,2-2v-59.5C75,21.147,74.103,20.25,73,20.25z M50,18.75  c1.104,0,2,0.895,2,2c0,1.105-0.896,2-2,2s-2-0.895-2-2C48,19.645,48.896,18.75,50,18.75z M61,29.25v-3h8.5v50h-39v-50H39v3H61z   M27,81.75v-59.5h12v3h-9.5v52h41v-52H61v-3h12l0.001,59.5H27z M35,35.75h15v2H35V35.75z M45,41.75H35v-2h10V41.75z M35,48.75h15v2  H35V48.75z M45,54.75H35v-2h10V54.75z M35,61.75h15v2H35V61.75z M35,65.75h10v2H35V65.75z M59.758,42.407l-3.536-3.536l1.414-1.414  l2.122,2.122L64,35.336l1.414,1.414L59.758,42.407z M59.758,55.407l-3.536-3.536l1.414-1.414l2.122,2.122L64,48.336l1.414,1.414  L59.758,55.407z M59.758,68.407l-3.536-3.536l1.414-1.414l2.122,2.122L64,61.336l1.414,1.414L59.758,68.407z"></path></svg>