<svg height='100px' width='100px'  fill="#000000" xmlns="http://www.w3.org/2000/svg" xmlns:xlink="http://www.w3.org/1999/xlink" version="1.1" x="0px" y="0px" viewBox="0 0 100 100" style="enable-background:new 0 0 100 100;" xml:space="preserve"><path d="M51.2255859,41.0380859c0.9790039,0,1.9257202-0.2000122,2.8076172-0.5733643v4.1083374  c-2.2521362,0.2427979-4.3659668,1.296814-5.9130859,2.9767456c-1.7744141,1.9272461-2.6679688,4.5297852-2.453125,7.1401367  l2.3808594,28.8764648C48.3457031,87.1738281,51.4140625,90,55.0332031,90s6.6875-2.8261719,6.9853516-6.4335938  l2.3808594-28.8759766c0.2148438-2.6108398-0.6787109-5.2133789-2.453125-7.140625  c-1.5471191-1.6799316-3.6609497-2.7339478-5.9130859-2.9767456v-4.1083374  c0.881897,0.3733521,1.8286133,0.5733643,2.8076172,0.5733643c4.0039062,0,7.2617188-3.2583008,7.2617188-7.2631836  c0-1.6943359-0.6015625-3.3344727-1.6767578-4.6308594c1.0751953-1.2963867,1.6767578-2.9365234,1.6767578-4.6313477  c0-3.0107422-1.8349609-5.6547852-4.5683594-6.7402344c0.0693359-0.3842773,0.1044922-0.7719727,0.1044922-1.1601562  c0-3.6425781-2.9628906-6.6064453-6.6054688-6.6064453s-6.6054688,2.9638672-6.6054688,6.6064453  c0,0.3881836,0.0351562,0.7758789,0.1044922,1.1601562c-2.7333984,1.0854492-4.5683594,3.7294922-4.5683594,6.7402344  c0,1.6948242,0.6015625,3.3349609,1.6767578,4.6313477c-1.0751953,1.2963867-1.6767578,2.9365234-1.6767578,4.6308594  C43.9638672,37.7797852,47.2216797,41.0380859,51.2255859,41.0380859z M62.4052734,54.5258789l-0.8220215,9.9697266h-5.3742676  c-0.5527344,0-1,0.4477539-1,1s0.4472656,1,1,1h5.2094116l-1.3939819,16.9067383C59.8125,85.9804688,57.6201172,88,55.0332031,88  s-4.7792969-2.0195312-4.9912109-4.5976562l-0.5565796-6.7504883h3.6327515c0.5527344,0,1-0.4477539,1-1s-0.4472656-1-1-1  h-3.7976074l-1.4387817-17.4501953h5.2363892c0.5527344,0,1-0.4477539,1-1s-0.4472656-1-1-1h-5.4012451l-0.0557861-0.6762695  c-0.1728516-2.0849609,0.5126953-4.081543,1.9306641-5.6206055c1.4169922-1.5390625,3.3496094-2.3867188,5.4414062-2.3867188  s4.0244141,0.8476562,5.4414062,2.3867188C61.8925781,50.4438477,62.578125,52.4404297,62.4052734,54.5258789z   M47.6933594,28.4042969c-1.0996094-0.9990234-1.7294922-2.4174805-1.7294922-3.8916016  c0-2.4287109,1.6494141-4.5283203,4.0097656-5.105957c0.2734375-0.0664062,0.5058594-0.2451172,0.640625-0.4916992  s0.1591797-0.5380859,0.0683594-0.8037109c-0.1689453-0.4926758-0.2548828-0.996582-0.2548828-1.4990234  c0-2.5400391,2.0664062-4.6064453,4.6054688-4.6064453s4.6054688,2.0664062,4.6054688,4.6064453  c0,0.5024414-0.0859375,1.0063477-0.2548828,1.4990234c-0.0908203,0.265625-0.0664062,0.5571289,0.0683594,0.8037109  s0.3671875,0.425293,0.640625,0.4916992c2.3603516,0.5776367,4.0097656,2.6772461,4.0097656,5.105957  c0,1.4741211-0.6298828,2.8925781-1.7294922,3.8916016c-0.2080078,0.1894531-0.3271484,0.4580078-0.3271484,0.7397461  s0.1191406,0.550293,0.3271484,0.7397461c1.0996094,0.9990234,1.7294922,2.4174805,1.7294922,3.8911133  c0,2.9023438-2.3603516,5.2631836-5.2617188,5.2631836c-1.0070801,0-1.9641113-0.2988892-2.8076172-0.838501V22.6240234  c0-0.5522461-0.4472656-1-1-1s-1,0.4477539-1,1V38.199585c-0.8435059,0.5396118-1.8005371,0.838501-2.8076172,0.838501  c-2.9013672,0-5.2617188-2.3608398-5.2617188-5.2631836c0-1.4736328,0.6298828-2.8920898,1.7294922-3.8911133  c0.2080078-0.1894531,0.3271484-0.4580078,0.3271484-0.7397461S47.9013672,28.59375,47.6933594,28.4042969z"></path><path d="M39.7568359,24.675293v-0.3203125c0-4.0131836-1.6972656-7.8710938-4.65625-10.5844727  c-3-2.7504883-6.9023438-4.0737305-10.9775391-3.7143555c-7.3291016,0.6367188-13.0703125,7.0585938-13.0703125,14.6191406  c0,3.0014648,2.4414062,5.4433594,5.4433594,5.4433594h4.0957031l-0.2460938,6.0024414  c-0.0449219,1.0981445,0.3496094,2.1396484,1.1113281,2.9326172c0.7607422,0.7924805,1.7841797,1.2290039,2.8828125,1.2290039  h2.1298828c1.0996094,0,2.1240234-0.4365234,2.8847656-1.2299805c0.7607422-0.7929688,1.1552734-1.8344727,1.109375-2.9321289  L30.21875,30.1186523h4.0957031C37.3154297,30.1186523,39.7568359,27.6767578,39.7568359,24.675293z M29.1767578,28.1186523  c-0.2724609,0-0.5332031,0.1108398-0.7216797,0.3076172c-0.1884766,0.1962891-0.2890625,0.4609375-0.2773438,0.7333984  l0.2880859,7.043457c0.0224609,0.5483398-0.1748047,1.0688477-0.5546875,1.4648438  c-0.3798828,0.3964844-0.8916016,0.6147461-1.4414062,0.6147461h-2.1298828c-0.5488281,0-1.0605469-0.2182617-1.4404297-0.6142578  c-0.3808594-0.3964844-0.578125-0.9169922-0.5556641-1.4658203l0.2890625-7.0429688  c0.0117188-0.2719727-0.0888672-0.5371094-0.2773438-0.7333984c-0.1884766-0.1967773-0.4492188-0.3076172-0.7216797-0.3076172  h-5.1376953c-1.8984375,0-3.4433594-1.5449219-3.4433594-3.4438477c0-6.5322266,4.9384766-12.078125,11.2441406-12.6264648  c0.375-0.0327148,0.7490234-0.0488281,1.1201172-0.0488281c3.1015625,0,6.0263672,1.1313477,8.3320312,3.2451172  c2.546875,2.3354492,4.0078125,5.65625,4.0078125,9.1103516v0.3203125c0,1.8984375-1.5439453,3.4433594-3.4423828,3.4433594  H29.1767578z"></path><path d="M80.3496094,10.1943359c-0.3408203-0.2470703-0.8017578-0.2558594-1.1494141-0.0195312  c-0.3955078,0.2675781-9.6777344,6.6435547-9.6777344,14.5820312c0,4.0603027,2.0844727,7.6035156,5.1653442,9.4918823  l-1.9973755,51.5935669c-0.0429688,1.0966797,0.3525391,2.1367188,1.1132812,2.9277344  c0.7607422,0.7915039,1.7841797,1.2270508,2.8818359,1.2270508h6.1513672c1.0976562,0,2.1210938-0.4355469,2.8818359-1.2270508  c0.7607422-0.7910156,1.15625-1.8310547,1.1132812-2.9272461L84.8346558,34.248291  C87.9154053,32.3598022,90,28.8168335,90,24.7568359C90,17.3032227,80.7431641,10.480957,80.3496094,10.1943359z   M71.5224609,24.7568359c0-5.8266602,6.2597656-11.0200195,8.2197266-12.5039062  c0.8380127,0.6699219,2.4746704,2.0603027,4.0714722,3.8577881c-6.8335571,4.1389771-5.9056396,13.8794556-5.2931519,17.4759521  C74.5655518,32.934021,71.5224609,29.2288208,71.5224609,24.7568359z M84.8339844,85.9204102  c0.0214844,0.5483398-0.1767578,1.0678711-0.5566406,1.4633789c-0.3808594,0.3955078-0.8925781,0.6132812-1.4404297,0.6132812  h-6.1513672c-0.5478516,0-1.0595703-0.2177734-1.4404297-0.6132812c-0.3798828-0.3955078-0.578125-0.9150391-0.5566406-1.4638672  l1.9642944-50.739624c0.9805298,0.3347778,2.0234985,0.5186768,3.1065063,0.5188599  c0.0001831,0,0.0003052,0.000061,0.0004883,0.000061c0.0001221,0,0.0001831-0.000061,0.0003052-0.000061  c0.0002441,0,0.0004272,0.000061,0.0006714,0.000061c1.0839233,0,2.1276245-0.1842041,3.1089478-0.5192871L84.8339844,85.9204102z   M80.5702515,33.6547241c-0.512207-2.8407593-1.7158203-12.4332886,4.5245361-15.9824219  C86.6970215,19.7902832,88,22.2706299,88,24.7568359C88,29.3909302,84.7344971,33.211731,80.5702515,33.6547241z"></path><path d="M24.4052734,85.4200439V89c0,0.5522461,0.4472656,1,1,1s1-0.4477539,1-1v-3.5799561  c8.027771-0.5192871,14.4052734-7.1975708,14.4052734-15.3546143c0-10.9335938-14.1738281-22.4990234-14.7773438-22.9863281  c-0.3652344-0.2958984-0.890625-0.2958984-1.2558594,0C24.1738281,47.5664062,10,59.1318359,10,70.0654297  C10,78.2224731,16.3775024,84.9007568,24.4052734,85.4200439z M25.4052734,49.1665039  c2.7294922,2.3603516,13.4052734,12.1523438,13.4052734,20.8989258c0,7.0540771-5.4805298,12.8397217-12.4052734,13.3546143  v-4.7307129c2.6450806-0.2931519,5.0422363-1.7312622,6.5458984-3.9827881  c0.3066406-0.4594727,0.1826172-1.0800781-0.2763672-1.3867188c-0.4619141-0.3081055-1.0810547-0.1826172-1.3876953,0.2763672  c-1.1298828,1.6931763-2.9085083,2.7952881-4.8818359,3.0776367v-8.0408936  c1.8062134-0.2783813,3.4309692-1.2929688,4.4677734-2.8453369c0.3066406-0.4589844,0.1826172-1.0800781-0.2763672-1.3867188  c-0.4619141-0.3085938-1.0810547-0.1826172-1.3876953,0.2763672c-0.663147,0.9928589-1.6710205,1.6693115-2.8037109,1.9241943  v-7.2987061c0-0.5522461-0.4472656-1-1-1s-1,0.4477539-1,1v7.2988892c-1.1333618-0.2546997-2.1412354-0.9310303-2.8037109-1.9243774  c-0.3076172-0.4589844-0.9287109-0.5834961-1.3867188-0.2768555c-0.4599609,0.3066406-0.5839844,0.9277344-0.2773438,1.387207  c1.0360718,1.5524292,2.6608276,2.5671997,4.4677734,2.845459v8.0407715  c-1.9733276-0.2823486-3.7519531-1.3844604-4.8818359-3.0776367c-0.3076172-0.4589844-0.9267578-0.5844727-1.3876953-0.2763672  c-0.4589844,0.3066406-0.5830078,0.9272461-0.2763672,1.3867188c1.5036621,2.2515259,3.9008179,3.6896362,6.5458984,3.9827881  v4.7307129C17.4805298,82.9051514,12,77.1195068,12,70.0654297C12,61.3188477,22.6757812,51.5268555,25.4052734,49.1665039z"></path></svg>